<?xml version="1.0" encoding="UTF-8"?>
<svg width="24" height="24" viewBox="0 0 24 24" fill="none" xmlns="http://www.w3.org/2000/svg">
    <path d="M6 6C7.65685 6 9 4.65685 9 3C9 4.65685 10.3431 6 12 6C13.6569 6 15 4.65685 15 3C15 4.65685 16.3431 6 18 6" stroke="currentColor" stroke-width="2" stroke-linecap="round"/>
    <path d="M6 18C7.65685 18 9 19.3431 9 21C9 19.3431 10.3431 18 12 18C13.6569 18 15 19.3431 15 21C15 19.3431 16.3431 18 18 18" stroke="currentColor" stroke-width="2" stroke-linecap="round"/>
    <path d="M6 6V18" stroke="currentColor" stroke-width="2"/>
    <path d="M18 6V18" stroke="currentColor" stroke-width="2"/>
</svg> 